<svg width="335.47" height="342.51" version="1.1" viewBox="0 0 335.47 342.51" xmlns="http://www.w3.org/2000/svg"><defs><clipPath><path d="m18.827 889.06h623.62v-870.24h-623.62z"/></clipPath><clipPath><path d="m47.174 820.69h73.241v17.343h-73.241z"/></clipPath><clipPath><path d="M 0,841.89 H 595.275 V 0 H 0 Z"/></clipPath><pattern width="11.4004" height="11.3999" patternTransform="translate(5.6695 -334.52)" patternUnits="userSpaceOnUse"><path d="m11.4 0h-11.4v11.4h11.4v-11.4z" fill="#fff"/><g transform="translate(5.7002 11.4)"><path d="m0 0-5.7-5.7v2.85l2.849 2.849 2.851 1e-3z" fill="#e6e7e8"/></g><g transform="translate(11.4 11.4)"><path d="m0 0-11.4-11.4v2.85l8.549 8.55h2.851z" fill="#e6e7e8"/></g><g transform="translate(11.4 5.7002)"><path d="m0 0-5.7-5.7h-2.851l8.551 8.55v-2.85z" fill="#e6e7e8"/></g><g transform="translate(11.4)"><path d="M 0,0 -2.851,0 0,2.85 0,0 Z" fill="#e6e7e8"/></g></pattern><pattern width="11.4004" height="11.3999" patternTransform="translate(5.6695 -334.52)" patternUnits="userSpaceOnUse"><path d="m11.4 0h-11.4v11.4h11.4v-11.4z" fill="#fff"/><g transform="translate(5.7002 11.4)"><path d="m0 0-5.7-5.7v2.85l2.849 2.849 2.851 1e-3z" fill="#e6e7e8"/></g><g transform="translate(11.4 11.4)"><path d="m0 0-11.4-11.4v2.85l8.549 8.55h2.851z" fill="#e6e7e8"/></g><g transform="translate(11.4 5.7002)"><path d="m0 0-5.7-5.7h-2.851l8.551 8.55v-2.85z" fill="#e6e7e8"/></g><g transform="translate(11.4)"><path d="M 0,0 -2.851,0 0,2.85 0,0 Z" fill="#e6e7e8"/></g></pattern><pattern width="11.4004" height="11.3999" patternTransform="translate(5.6695 -334.52)" patternUnits="userSpaceOnUse"><path d="m11.4 0h-11.4v11.4h11.4v-11.4z" fill="#fff"/><g transform="translate(5.7002 11.4)"><path d="m0 0-5.7-5.7v2.85l2.849 2.849 2.851 1e-3z" fill="#e6e7e8"/></g><g transform="translate(11.4 11.4)"><path d="m0 0-11.4-11.4v2.85l8.549 8.55h2.851z" fill="#e6e7e8"/></g><g transform="translate(11.4 5.7002)"><path d="m0 0-5.7-5.7h-2.851l8.551 8.55v-2.85z" fill="#e6e7e8"/></g><g transform="translate(11.4)"><path d="M 0,0 -2.851,0 0,2.85 0,0 Z" fill="#e6e7e8"/></g></pattern><pattern width="11.4004" height="11.3999" patternTransform="translate(5.6695 -334.52)" patternUnits="userSpaceOnUse"><path d="m11.4 0h-11.4v11.4h11.4v-11.4z" fill="#fff"/><g transform="translate(5.7002 11.4)"><path d="m0 0-5.7-5.7v2.85l2.849 2.849 2.851 1e-3z" fill="#e6e7e8"/></g><g transform="translate(11.4 11.4)"><path d="m0 0-11.4-11.4v2.85l8.549 8.55h2.851z" fill="#e6e7e8"/></g><g transform="translate(11.4 5.7002)"><path d="m0 0-5.7-5.7h-2.851l8.551 8.55v-2.85z" fill="#e6e7e8"/></g><g transform="translate(11.4)"><path d="M 0,0 -2.851,0 0,2.85 0,0 Z" fill="#e6e7e8"/></g></pattern><pattern width="11.4004" height="11.3999" patternTransform="translate(5.6695 -334.52)" patternUnits="userSpaceOnUse"><path d="m11.4 0h-11.4v11.4h11.4v-11.4z" fill="#fff"/><g transform="translate(5.7002 11.4)"><path d="m0 0-5.7-5.7v2.85l2.849 2.849 2.851 1e-3z" fill="#e6e7e8"/></g><g transform="translate(11.4 11.4)"><path d="m0 0-11.4-11.4v2.85l8.549 8.55h2.851z" fill="#e6e7e8"/></g><g transform="translate(11.4 5.7002)"><path d="m0 0-5.7-5.7h-2.851l8.551 8.55v-2.85z" fill="#e6e7e8"/></g><g transform="translate(11.4)"><path d="M 0,0 -2.851,0 0,2.85 0,0 Z" fill="#e6e7e8"/></g></pattern><pattern width="11.3232" height="11.3213" patternTransform="translate(5.6695 -334.52)" patternUnits="userSpaceOnUse"><path d="m11.323 0h-11.322v11.321h11.322v-11.321z" fill="#fff"/><g transform="translate(5.6621 11.321)"><path d="m0 0-5.661-5.66v2.83l2.829 2.83h2.832z" fill="#d1d3d4"/></g><g transform="translate(11.323 11.321)"><path d="m0 0-11.323-11.321 1e-3 2.83 8.491 8.491h2.831z" fill="#d1d3d4"/></g><g transform="translate(11.323 5.6611)"><path d="m0 0-5.661-5.661h-2.831l8.492 8.491v-2.83z" fill="#d1d3d4"/></g><g transform="translate(11.323)"><path d="M 0,0 -2.831,0 0,2.83 0,0 Z" fill="#d1d3d4"/></g></pattern><clipPath><path d="M 0,841.89 H 595.276 V 0 H 0 Z"/></clipPath><pattern width="28.3467" height="28.3467" patternTransform="matrix(.31999 0 0 .31999 -5804.8 5270)" patternUnits="userSpaceOnUse"><g transform="translate(6.8643 28.347)"><path d="m 0,0 -6.863,-6.864 0,-7.31 L 7.311,0 0,0 Z" fill="#e6e7e8"/></g><g transform="translate(21.038 28.347)"><path d="m 0,0 -21.037,-21.037 0,-7.31 L 7.309,0 0,0 Z" fill="#e6e7e8"/></g><g transform="translate(28.347 21.482)"><path d="m0 0-21.482-21.482h7.31l14.172 14.172v7.31z" fill="#e6e7e8"/></g><g transform="translate(21.038)"><path d="m0 0h7.309v7.31l-7.309-7.31z" fill="#e6e7e8"/></g></pattern><clipPath><path d="M 0,841.89 H 595.276 V 0 H 0 Z"/></clipPath><clipPath><path d="M 0,841.89 H 595.276 V 0 H 0 Z"/></clipPath><clipPath><path d="M 0,841.89 H 595.276 V 0 H 0 Z"/></clipPath><clipPath><path d="M 0,841.89 H 595.276 V 0 H 0 Z"/></clipPath><clipPath><path d="M 0,841.89 H 595.276 V 0 H 0 Z"/></clipPath><clipPath><path d="M 0,841.89 H 595.276 V 0 H 0 Z"/></clipPath><clipPath><path d="M 0,841.89 H 595.276 V 0 H 0 Z"/></clipPath><clipPath><path d="M 0,841.89 H 595.276 V 0 H 0 Z"/></clipPath><clipPath><path d="M 0,841.89 H 595.276 V 0 H 0 Z"/></clipPath><clipPath><path d="M 0,841.89 H 595.276 V 0 H 0 Z"/></clipPath><clipPath><path d="M 0,841.89 H 595.276 V 0 H 0 Z"/></clipPath><clipPath><path d="M 0,841.89 H 595.276 V 0 H 0 Z"/></clipPath><clipPath><path d="M 0,841.89 H 595.276 V 0 H 0 Z"/></clipPath><clipPath><path d="M 0,841.89 H 595.276 V 0 H 0 Z"/></clipPath><clipPath><path d="M 0,841.89 H 595.276 V 0 H 0 Z"/></clipPath><clipPath><path d="M 0,841.89 H 595.276 V 0 H 0 Z"/></clipPath><clipPath><path d="M 0,841.89 H 595.276 V 0 H 0 Z"/></clipPath><clipPath><path d="M 0,841.89 H 595.276 V 0 H 0 Z"/></clipPath><clipPath><path d="M 0,841.89 H 595.276 V 0 H 0 Z"/></clipPath><clipPath><path d="M 0,841.89 H 595.276 V 0 H 0 Z"/></clipPath><clipPath><path d="M 0,841.89 H 595.276 V 0 H 0 Z"/></clipPath><clipPath><path d="M 0,841.89 H 595.276 V 0 H 0 Z"/></clipPath><clipPath><path d="M 0,841.89 H 595.276 V 0 H 0 Z"/></clipPath><clipPath><path d="M 0,841.89 H 595.276 V 0 H 0 Z"/></clipPath><clipPath><path d="M 0,841.89 H 595.276 V 0 H 0 Z"/></clipPath><clipPath><path d="M 0,841.89 H 595.276 V 0 H 0 Z"/></clipPath><clipPath><path d="M 0,841.89 H 595.276 V 0 H 0 Z"/></clipPath><clipPath><path d="M 0,841.89 H 595.276 V 0 H 0 Z"/></clipPath><clipPath><path d="M 0,841.89 H 595.276 V 0 H 0 Z"/></clipPath><clipPath><path d="M 0,841.89 H 595.276 V 0 H 0 Z"/></clipPath><clipPath><path d="M 0,841.89 H 595.276 V 0 H 0 Z"/></clipPath><clipPath><path d="M 0,841.89 H 595.276 V 0 H 0 Z"/></clipPath><clipPath><path d="M 0,841.89 H 595.276 V 0 H 0 Z"/></clipPath><clipPath><path d="M 0,841.89 H 595.276 V 0 H 0 Z"/></clipPath><clipPath><path d="M 0,841.89 H 595.276 V 0 H 0 Z"/></clipPath><clipPath><path d="M 0,841.89 H 595.276 V 0 H 0 Z"/></clipPath><clipPath><path d="M 0,841.89 H 595.276 V 0 H 0 Z"/></clipPath><clipPath><path d="M 0,841.89 H 595.276 V 0 H 0 Z"/></clipPath><clipPath><path d="M 0,841.89 H 595.276 V 0 H 0 Z"/></clipPath><clipPath><path d="M 0,841.89 H 595.276 V 0 H 0 Z"/></clipPath><clipPath><path d="M 0,841.89 H 595.276 V 0 H 0 Z"/></clipPath><clipPath><path d="M 0,841.89 H 595.276 V 0 H 0 Z"/></clipPath><clipPath><path d="M 0,841.89 H 595.276 V 0 H 0 Z"/></clipPath><clipPath><path d="M 0,841.89 H 595.276 V 0 H 0 Z"/></clipPath><clipPath><path d="M 0,841.89 H 595.276 V 0 H 0 Z"/></clipPath><clipPath><path d="M 0,841.89 H 595.276 V 0 H 0 Z"/></clipPath><clipPath><path d="M 0,841.89 H 595.276 V 0 H 0 Z"/></clipPath><clipPath><path d="M 0,841.89 H 595.276 V 0 H 0 Z"/></clipPath><clipPath><path d="M 0,841.89 H 595.276 V 0 H 0 Z"/></clipPath><clipPath><path d="M 0,841.89 H 595.276 V 0 H 0 Z"/></clipPath><clipPath><path d="M 0,841.89 H 595.276 V 0 H 0 Z"/></clipPath><clipPath><path d="M 0,841.89 H 595.276 V 0 H 0 Z"/></clipPath><clipPath><path d="M 0,841.89 H 595.276 V 0 H 0 Z"/></clipPath><clipPath><path d="M 0,841.89 H 595.276 V 0 H 0 Z"/></clipPath><clipPath><path d="M 0,841.89 H 595.276 V 0 H 0 Z"/></clipPath><clipPath><path d="M 0,841.89 H 595.276 V 0 H 0 Z"/></clipPath><clipPath><path d="M 0,841.89 H 595.276 V 0 H 0 Z"/></clipPath><clipPath><path d="M 0,841.89 H 595.276 V 0 H 0 Z"/></clipPath><clipPath><path d="M 0,841.89 H 595.276 V 0 H 0 Z"/></clipPath><clipPath><path d="M 0,841.89 H 595.276 V 0 H 0 Z"/></clipPath><clipPath><path d="M 0,841.89 H 595.276 V 0 H 0 Z"/></clipPath><clipPath><path d="M 0,841.89 H 595.276 V 0 H 0 Z"/></clipPath><clipPath><path d="M 0,841.89 H 595.276 V 0 H 0 Z"/></clipPath><clipPath><path d="M 0,841.89 H 595.276 V 0 H 0 Z"/></clipPath><clipPath><path d="M 0,841.89 H 595.276 V 0 H 0 Z"/></clipPath><clipPath><path d="M 0,841.89 H 595.276 V 0 H 0 Z"/></clipPath><clipPath><path d="M 0,841.89 H 595.276 V 0 H 0 Z"/></clipPath><clipPath><path d="M 0,841.89 H 595.276 V 0 H 0 Z"/></clipPath><clipPath><path d="M 0,841.89 H 595.276 V 0 H 0 Z"/></clipPath><clipPath><path d="M 0,841.89 H 595.276 V 0 H 0 Z"/></clipPath><clipPath><path d="M 0,841.89 H 595.276 V 0 H 0 Z"/></clipPath><clipPath><path d="M 0,841.89 H 595.276 V 0 H 0 Z"/></clipPath><clipPath><path d="M 0,841.89 H 595.276 V 0 H 0 Z"/></clipPath><clipPath><path d="M 0,841.89 H 595.276 V 0 H 0 Z"/></clipPath><clipPath><path d="M 0,841.89 H 595.276 V 0 H 0 Z"/></clipPath><clipPath><path d="M 0,841.89 H 595.276 V 0 H 0 Z"/></clipPath><clipPath><path d="M 0,841.89 H 595.276 V 0 H 0 Z"/></clipPath><clipPath><path d="M 0,841.89 H 595.276 V 0 H 0 Z"/></clipPath><clipPath><path d="M 0,841.89 H 595.276 V 0 H 0 Z"/></clipPath><clipPath><path d="M 0,841.89 H 595.276 V 0 H 0 Z"/></clipPath><clipPath><path d="M 0,841.89 H 595.276 V 0 H 0 Z"/></clipPath><clipPath><path d="M 0,841.89 H 595.276 V 0 H 0 Z"/></clipPath><clipPath><path d="M 0,841.89 H 595.276 V 0 H 0 Z"/></clipPath><clipPath><path d="M 0,841.89 H 595.276 V 0 H 0 Z"/></clipPath><clipPath><path d="M 0,841.89 H 595.276 V 0 H 0 Z"/></clipPath><clipPath><path d="M 0,841.89 H 595.276 V 0 H 0 Z"/></clipPath><clipPath><path d="M 0,841.89 H 595.276 V 0 H 0 Z"/></clipPath><clipPath><path d="M 0,841.89 H 595.276 V 0 H 0 Z"/></clipPath><clipPath><path d="M 0,841.89 H 595.276 V 0 H 0 Z"/></clipPath><clipPath><path d="M 0,841.89 H 595.276 V 0 H 0 Z"/></clipPath><clipPath><path d="M 0,841.89 H 595.276 V 0 H 0 Z"/></clipPath><clipPath><path d="M 0,841.89 H 595.276 V 0 H 0 Z"/></clipPath><clipPath><path d="M 0,841.89 H 595.276 V 0 H 0 Z"/></clipPath><clipPath><path d="M 0,841.89 H 595.276 V 0 H 0 Z"/></clipPath><clipPath><path d="M 0,841.89 H 595.276 V 0 H 0 Z"/></clipPath><clipPath><path d="M 0,841.89 H 595.276 V 0 H 0 Z"/></clipPath><clipPath><path d="M 0,841.89 H 595.276 V 0 H 0 Z"/></clipPath><clipPath><path d="M 0,841.89 H 595.276 V 0 H 0 Z"/></clipPath><clipPath><path d="M 0,841.89 H 595.276 V 0 H 0 Z"/></clipPath><clipPath><path d="M 0,841.89 H 595.276 V 0 H 0 Z"/></clipPath><clipPath><path d="M 0,841.89 H 595.276 V 0 H 0 Z"/></clipPath><clipPath><path d="M 0,841.89 H 595.276 V 0 H 0 Z"/></clipPath><clipPath><path d="M 0,841.89 H 595.276 V 0 H 0 Z"/></clipPath><clipPath><path d="M 0,841.89 H 595.276 V 0 H 0 Z"/></clipPath><clipPath><path d="M 0,841.89 H 595.276 V 0 H 0 Z"/></clipPath><clipPath><path d="M 0,841.89 H 595.276 V 0 H 0 Z"/></clipPath><clipPath><path d="M 0,841.89 H 595.276 V 0 H 0 Z"/></clipPath><clipPath><path d="M 0,841.89 H 595.276 V 0 H 0 Z"/></clipPath><clipPath><path d="M 0,841.89 H 595.276 V 0 H 0 Z"/></clipPath><clipPath><path d="M 0,841.89 H 595.276 V 0 H 0 Z"/></clipPath><clipPath><path d="M 0,841.89 H 595.276 V 0 H 0 Z"/></clipPath><clipPath><path d="M 0,841.89 H 595.276 V 0 H 0 Z"/></clipPath><clipPath><path d="M 0,841.89 H 595.276 V 0 H 0 Z"/></clipPath><clipPath><path d="M 0,841.89 H 595.276 V 0 H 0 Z"/></clipPath><clipPath><path d="M 0,841.89 H 595.276 V 0 H 0 Z"/></clipPath><clipPath><path d="M 0,841.89 H 595.276 V 0 H 0 Z"/></clipPath><clipPath><path d="M 0,841.89 H 595.276 V 0 H 0 Z"/></clipPath><clipPath><path d="M 0,841.89 H 595.276 V 0 H 0 Z"/></clipPath><clipPath><path d="M 0,841.89 H 595.276 V 0 H 0 Z"/></clipPath><clipPath><path d="M 0,841.89 H 595.276 V 0 H 0 Z"/></clipPath><clipPath><path d="M 0,841.89 H 595.276 V 0 H 0 Z"/></clipPath><clipPath><path d="M 0,841.89 H 595.276 V 0 H 0 Z"/></clipPath><clipPath><path d="M 0,841.89 H 595.276 V 0 H 0 Z"/></clipPath><clipPath><path d="M 0,841.89 H 595.276 V 0 H 0 Z"/></clipPath><clipPath><path d="M 0,841.89 H 595.276 V 0 H 0 Z"/></clipPath><clipPath><path d="M 0,841.89 H 595.276 V 0 H 0 Z"/></clipPath><clipPath><path d="M 0,841.89 H 595.276 V 0 H 0 Z"/></clipPath><clipPath><path d="M 0,841.89 H 595.276 V 0 H 0 Z"/></clipPath><clipPath><path d="M 0,841.89 H 595.276 V 0 H 0 Z"/></clipPath><clipPath><path d="M 0,841.89 H 595.276 V 0 H 0 Z"/></clipPath><clipPath><path d="M 0,841.89 H 595.276 V 0 H 0 Z"/></clipPath><clipPath><path d="M 0,841.89 H 595.276 V 0 H 0 Z"/></clipPath><clipPath><path d="M 0,841.89 H 595.276 V 0 H 0 Z"/></clipPath><clipPath><path d="M 0,841.89 H 595.276 V 0 H 0 Z"/></clipPath><clipPath><path d="M 0,841.89 H 595.276 V 0 H 0 Z"/></clipPath><clipPath><path d="M 0,841.89 H 595.276 V 0 H 0 Z"/></clipPath><clipPath><path d="M 0,841.89 H 595.276 V 0 H 0 Z"/></clipPath><clipPath><path d="M 0,841.89 H 595.276 V 0 H 0 Z"/></clipPath><clipPath><path d="M 0,841.89 H 595.276 V 0 H 0 Z"/></clipPath><clipPath><path d="M 0,841.89 H 595.276 V 0 H 0 Z"/></clipPath><clipPath><path d="M 0,841.89 H 595.276 V 0 H 0 Z"/></clipPath><clipPath><path d="M 0,841.89 H 595.276 V 0 H 0 Z"/></clipPath><clipPath><path d="M 0,841.89 H 595.276 V 0 H 0 Z"/></clipPath><clipPath><path d="M 0,841.89 H 595.276 V 0 H 0 Z"/></clipPath><clipPath><path d="M 0,841.89 H 595.276 V 0 H 0 Z"/></clipPath><clipPath><path d="M 0,841.89 H 595.276 V 0 H 0 Z"/></clipPath><clipPath><path d="M 0,841.89 H 595.276 V 0 H 0 Z"/></clipPath><clipPath><path d="M 0,841.89 H 595.276 V 0 H 0 Z"/></clipPath><clipPath><path d="M 0,841.89 H 595.276 V 0 H 0 Z"/></clipPath><clipPath><path d="M 0,841.89 H 595.276 V 0 H 0 Z"/></clipPath></defs><g transform="translate(-162.61 -127.21)"><g transform="translate(2.718)"><g transform="rotate(7.1058 -2.2674 598.15)"><path d="m198.48 175.67-42.775-0.0843s-12.12 3.1078-11.81 13.985c0.31078 10.877 9.6342 19.579 9.6342 19.579l-27.038 0.31078s-9.945 3.1078-8.7018 14.917 3.4186 16.161 15.539 17.093 5.2833 8.3911 5.2833 8.3911-6.8372 9.6342-1.8647 15.85c4.9725 6.2156 4.3509 9.945 23.619 9.945s12.742 0.31078 10.256 6.8372-7.1479 21.133 8.391 23.93c15.539 2.797 23.93 0.62156 23.93 0.62156l169.38 2.4862s36.05-4.3509 46.928-16.782c10.877-12.431 29.213-29.524 31.078-58.737 1.8647-29.213-14.296-60.602-33.875-72.722-19.579-12.12-36.05-17.093-65.885-15.85-14.917 0.62156-58.905-0.28703-78.412 0.0806-19.507 0.36766-26.343 4.8086-20.409 17.994 5.9334 13.185 23.23 24.538 35.935 24.824 3.6609 0.0825 31.506-1.1196 49.839-0.0998 19.506 1.0851 19.105 19.751 5.2933 16.813-27.624-5.877-144.33-29.381-144.33-29.381z" fill="#fff"/><g fill="none" stroke="#000" stroke-linecap="round" stroke-linejoin="round" stroke-width="4.5354"><path d="m362.09 209.4c0-11.481-9.3072-20.788-20.788-20.788l3.7e-4 3.9e-4h-63.131c-7.9114 0-28.165-18.987-28.165-31.013 0-12.025 8.1054-11.871 8.1054-11.871l110.69 0.3129c44.887 0 81.275 36.388 81.275 81.275 0 44.887-36.388 81.275-81.275 81.275h-183.3l-1.3104-0.10306c-9.1968 0-16.652-7.4555-16.652-16.652 0-9.1968 7.4554-16.652 16.652-16.652h17.828"/><path d="m151.41 241.88c-9.1968 0-16.652 7.4555-16.652 16.652 0 9.1968 7.4554 16.652 16.652 16.652h48.107"/><path d="m197.03 241.88h-63.31c-9.1968 0-16.652-7.4555-16.652-16.652 0-9.1968 7.4554-16.652 16.652-16.652h66.691"/><path d="m159.72 208.57c-9.1968 0-16.652-7.4555-16.652-16.652 0-9.1968 7.4554-16.652 16.652-16.652h36.955"/></g><rect x="194.73" y="100.12" width="167.4" height="249.15" rx="10" ry="10" fill="#c2d840" stroke="#000" stroke-linecap="round" stroke-linejoin="round" stroke-width="4.5354"/><path d="m362.09 209.4c0-11.481-9.3072-20.788-20.788-20.788l3.7e-4 3.9e-4h-63.131c-7.9114 0-28.165-18.987-28.165-31.013 0-12.025 8.1054-11.871 8.1054-11.871l110.69 0.3129c44.887 0 81.275 36.388 81.275 81.275" fill="#fff" stroke="#000" stroke-linecap="round" stroke-linejoin="round" stroke-width="4.5354"/><g stroke-width="1.5746" aria-label="myki"><path d="m230.4 227.59q1.5431-1.6691 3.7161-2.5509 2.173-0.91329 4.5034-0.91329 5.6372 0 8.692 4.157 2.0785-2.173 4.409-3.1493 2.3619-1.0078 5.4167-1.0078 2.4564 0 4.5664 0.75583 2.11 0.75582 3.4957 2.1415 3.5902 3.5902 3.5902 9.3218v15.62q0 2.5824-0.53537 3.6531-0.97628 1.9526-3.5587 1.9526-2.5824 0-3.5587-1.9526-0.53538-1.0708-0.53538-3.6531v-14.487q0-3.0548-1.6061-4.472-1.5746-1.4487-3.8106-1.4487-2.2045 0-3.8421 1.4172-1.6376 1.3857-1.6376 4.3145v14.676q0 2.5824-0.53538 3.6531-0.97627 1.9526-3.5587 1.9526t-3.5587-1.9526q-0.53537-1.0708-0.53537-3.6531v-14.487q0-3.0548-1.6061-4.472-1.5746-1.4487-3.8106-1.4487t-3.8736 1.4487q-1.6061 1.4172-1.6061 4.472v14.487q0 2.5824-0.53537 3.6531-0.97628 1.9526-3.5587 1.9526-2.5824 0-3.5587-1.9526-0.53538-1.0708-0.53538-3.6531v-22.139q0-1.6061 0.0945-2.299 0.12597-0.69284 0.50388-1.3857 0.4409-0.8503 1.3857-1.3542 0.97627-0.53538 2.1415-0.53538 1.6061 0 2.6139 0.94478 0.8503 0.78732 1.2282 2.3934z"/><path d="m273.98 262.1q1.2912 0 2.173-0.66135 0.88179-0.66134 1.4487-2.362l1.1652-3.4957-8.4715-24.974q-0.88179-2.6454-0.47239-3.8106 0.37792-1.1337 1.4172-1.8266 1.0708-0.72434 2.3934-0.72434 0.91329 0 1.5746 0.31493 0.66134 0.28343 1.1022 0.94478 0.47239 0.66135 0.69284 1.1967 0.25194 0.53538 0.56687 1.4802l5.2278 16.25 5.2908-16.25q0.31493-0.94478 0.53537-1.4802 0.25195-0.53537 0.69284-1.1967 0.47239-0.66135 1.1337-0.94478 0.66134-0.31493 1.5746-0.31493 1.3227 0 2.362 0.72434 1.0708 0.69283 1.4487 1.8266 0.40941 1.1652-0.47239 3.8106l-11.054 32.091q-0.81881 2.4879-2.4879 4.1885-2.5509 2.5824-6.7079 2.5824-2.173 0-3.1493-0.50388-1.7951-0.94478-1.7951-3.2438 0-2.299 1.7951-3.2437 0.75583-0.37791 2.0155-0.37791z"/><path d="m323.74 253.76q0 1.921-1.9211 3.1178-1.1022 0.69284-2.2045 0.69284-1.2282 0-2.047-0.69284t-1.8581-2.362l-6.6135-10.487-3.7791 4.346v3.5902q0 2.5824-0.53538 3.6531-0.97627 1.9526-3.5587 1.9526t-3.5587-1.9526q-0.53537-1.0708-0.53537-3.6531v-34.138q0-2.5824 0.53537-3.6531 0.97627-1.9526 3.5587-1.9526t3.5587 1.9526q0.53538 1.0708 0.53538 3.6531v20.155l9.9517-11.369q1.1652-1.3227 1.921-1.8266 0.75583-0.53538 1.7321-0.53538 1.4487 0 2.5509 0.97628 1.2912 1.1022 1.2912 2.7714 0 0.78732-0.4094 1.5746-0.40941 0.75583-1.4802 1.9526l-6.0781 6.8969 7.5582 11.936q1.3857 2.236 1.3857 3.4012z"/><path d="m333.81 251.96q0 2.5824-0.53537 3.6531-0.97627 1.9526-3.5587 1.9526t-3.5587-1.9526q-0.53538-1.0708-0.53538-3.6531v-21.163q0-2.5824 0.53538-3.6532 0.97627-1.9526 3.5587-1.9526t3.5587 1.9526q0.53537 1.0708 0.53537 3.6532zm-7.4323-33.351q-1.3857-1.3857-1.3857-3.3382t1.3857-3.3382q1.3857-1.3857 3.3382-1.3857 1.9525 0 3.3382 1.3857t1.3857 3.3382-1.3857 3.3382-3.3382 1.3857q-1.9526 0-3.3382-1.3857z"/></g><g transform="matrix(1.3902 0 0 -1.3902 147.09 497.83)"><g transform="translate(56.637 130.16)"><path d="m0 0c0.362 0 0.653 0.294 0.653 0.652 0 0.365-0.291 0.661-0.653 0.661-0.364 0-0.656-0.296-0.656-0.661 0-0.358 0.292-0.652 0.656-0.652"/></g><g transform="translate(58.398 130.16)"><path d="m0 0c0.36 0 0.653 0.294 0.653 0.652 0 0.365-0.293 0.661-0.653 0.661-0.363 0-0.656-0.296-0.656-0.661 0-0.358 0.293-0.652 0.656-0.652"/></g><g transform="translate(66.476 130.16)"><path d="m0 0c-0.362 0-0.653 0.294-0.653 0.652 0 0.365 0.291 0.661 0.653 0.661 0.363 0 0.656-0.296 0.656-0.661 0-0.358-0.293-0.652-0.656-0.652"/></g><g transform="translate(64.715 130.16)"><path d="m0 0c-0.361 0-0.654 0.294-0.654 0.652 0 0.365 0.293 0.661 0.654 0.661 0.363 0 0.657-0.296 0.657-0.661 0-0.358-0.294-0.652-0.657-0.652"/></g><g transform="translate(48.288 132.56)"><path d="m0 0c0 7.318 5.953 13.272 13.271 13.272s13.271-5.954 13.271-13.272c0-7.316-5.953-13.271-13.271-13.271s-13.271 5.955-13.271 13.271m-1.115 0c0-7.932 6.454-14.386 14.386-14.386 7.934 0 14.386 6.454 14.386 14.386 0 7.933-6.452 14.386-14.386 14.386-7.932 0-14.386-6.453-14.386-14.386"/></g><g transform="translate(57.869 124.97)"><path d="m0 0 0.477 1.196h6.423l0.474-1.196zm1.195 3.005h4.985l0.497-1.25h-5.979zm-4.647 1.972c5e-3 0.063 0.728 9.898 0.728 9.898l2e-3 0.021v0.019c0 0.48 0.387 0.868 0.864 0.868h11.09c0.477 0 0.866-0.388 0.866-0.868v-0.019s0.724-9.856 0.728-9.919c-4e-3 -0.472-0.389-0.858-0.863-0.858h-12.552c-0.474 0-0.858 0.386-0.863 0.858m15.455-4.977h-3.106l-0.814 1.196h2.351c0.153 0 0.278 0.124 0.278 0.28 0 0.152-0.125 0.279-0.278 0.279h-2.732l-0.851 1.25h3.112c1.092 0 1.979 0.889 1.979 1.979v0.023l-0.732 9.949 2e-3 -0.041c0 1.095-0.888 1.981-1.98 1.981h-11.09c-1.091 0-1.98-0.886-1.98-1.981l1e-3 0.041-0.731-9.949v-0.023c0-1.09 0.888-1.979 1.979-1.979h3.113l-0.852-1.25h-2.723c-0.154 0-0.279-0.127-0.279-0.279 0-0.156 0.125-0.28 0.279-0.28h2.343l-0.814-1.196h-3.096c-0.31 0-0.558-0.248-0.558-0.557 0-0.308 0.248-0.556 0.558-0.556h2.335l-0.778-1.145c-0.049-0.07-0.054-0.166-0.013-0.243 0.04-0.078 0.123-0.125 0.209-0.125h1.66c0.097 0 0.183 0.057 0.219 0.149l0.543 1.364h8.261l0.541-1.364c0.037-0.092 0.124-0.149 0.221-0.149h1.659c0.087 0 0.168 0.047 0.211 0.125 0.041 0.077 0.036 0.173-0.013 0.243l-0.779 1.145h2.345c0.308 0 0.558 0.248 0.558 0.556 0 0.309-0.25 0.557-0.558 0.557"/></g><g transform="translate(61.836 134.83)"><path d="m0 0v3.276h3.596c0.015-0.211 0.217-2.925 0.243-3.276zm-4.156 3.276h3.598v-3.276h-3.841c0.025 0.351 0.228 3.065 0.243 3.276m9.123-3.394-0.269 3.598c1e-3 -0.012 2e-3 -0.028 2e-3 -0.042 0 0.527-0.427 0.954-0.952 0.954h-8.056c-0.525 0-0.951-0.427-0.951-0.954 0 0.014 0 0.03 1e-3 0.042l-0.268-3.598c-1e-3 -0.016-2e-3 -0.03-2e-3 -0.042 0-0.526 0.427-0.953 0.953-0.953h8.591c0.525 0 0.952 0.427 0.952 0.953 0 0.012 0 0.026-1e-3 0.042"/></g></g><g transform="matrix(2.3222 0 0 -2.3222 257.63 434.63)"><g transform="translate(25.65 49.547)"><path d="m0 0c0 0.199 0.159 0.354 0.355 0.354 0.195 0 0.354-0.155 0.354-0.354 0-0.195-0.159-0.354-0.354-0.354-0.196 0-0.355 0.159-0.355 0.354m-0.332 0c0-0.379 0.307-0.688 0.687-0.688 0.375 0 0.687 0.309 0.687 0.688s-0.312 0.688-0.687 0.688c-0.38 0-0.687-0.309-0.687-0.688"/></g><g transform="translate(30.968 49.547)"><path d="m0 0c0 0.199 0.158 0.354 0.354 0.354 0.195 0 0.354-0.155 0.354-0.354 0-0.195-0.159-0.354-0.354-0.354-0.196 0-0.354 0.159-0.354 0.354m-0.334 0c0-0.379 0.312-0.688 0.688-0.688 0.378 0 0.687 0.309 0.687 0.688s-0.309 0.688-0.687 0.688c-0.376 0-0.688-0.309-0.688-0.688"/></g><g transform="translate(20.718 52.148)"><path d="m0 0c0 4.383 3.563 7.945 7.945 7.945 4.379 0 7.946-3.562 7.946-7.945 0-4.381-3.567-7.947-7.946-7.947-4.382 0-7.945 3.566-7.945 7.947m-0.668 0c0-4.748 3.863-8.613 8.613-8.613 4.746 0 8.612 3.865 8.612 8.613 0 4.75-3.866 8.611-8.612 8.611-4.75 0-8.613-3.861-8.613-8.611"/></g><g transform="translate(32.242 48.424)"><path d="m0 0h-7.115c-0.284 0-0.518 0.232-0.518 0.516 0 7e-3 0.022 0.736 0.055 1.744h8.04c0.03-1.008 0.056-1.737 0.056-1.744 0-0.284-0.234-0.516-0.518-0.516m-7.437 6.861h3.688v-3.933h-3.808c0.04 1.306 0.09 2.871 0.12 3.933m0.039 1.233v0.013c0 0.284 0.235 0.518 0.52 0.518h6.642c0.283 0 0.516-0.234 0.516-0.518v-0.013s8e-3 -0.209 0.017-0.567h-7.713c0.014 0.358 0.018 0.567 0.018 0.567m7.841-5.166h-3.854v3.933h3.729c0.034-1.062 0.083-2.627 0.125-3.933m0.742-2.401-0.238 7.592v-0.012c0 0.655-0.533 1.188-1.183 1.188h-6.642c-0.654 0-1.185-0.533-1.185-1.188v0.012l-0.236-7.596v-3e-3c0-0.657 0.529-1.188 1.184-1.188h0.207v-0.588c0-0.375 0.304-0.682 0.679-0.682s0.684 0.307 0.684 0.682v0.588h3.934v-0.588c0-0.375 0.306-0.682 0.682-0.682s0.68 0.307 0.68 0.682v0.588h0.249c0.654 0 1.185 0.531 1.185 1.188z"/></g></g><path d="m284.12 317.51h-5.675l-2.7263-3.6633 0.36286-3.0961c0.0278-0.21548-0.12651-0.41012-0.33644-0.43236-0.2141-0.0222-0.40873 0.1279-0.43236 0.33643l-0.6145 5.2218c-0.0222 0.21132 0.1293 0.40317 0.34062 0.42264 0.2127 0.0278 0.40734-0.12374 0.42958-0.33506l0.11817-0.99957 1.8949 2.5455h-4.7449c-0.17796 0-0.32393-0.14181-0.32393-0.31837 4e-3 -0.0639 0.51995-11.558 0.51995-11.558 1e-3 -0.0125 1e-3 -0.0222 1e-3 -0.0292 0-0.18211 0.14459-0.3267 0.32393-0.3267h10.339c0.17795 0 0.32392 0.14459 0.32392 0.3267v0.0292s0.51857 11.495 0.52134 11.558c-3e-3 0.17656-0.14597 0.31837-0.32253 0.31837m1.8713-0.35452-0.51996-11.592v0.0403c0-1.0385-0.8397-1.8768-1.874-1.8768h-10.339c-1.0357 0-1.8754 0.83832-1.8754 1.8768v-0.0403l-0.51995 11.592c0 5e-3 -3e-3 0.018-3e-3 0.032 0 1.0316 0.8411 1.8713 1.8768 1.8713h11.383c1.033 0 1.874-0.8397 1.874-1.8713 0-0.0139 0-0.0264-3e-3 -0.032m0.59085 6.5578h-16.308c-0.66315 0-1.1998-0.53663-1.2026-1.19 3e-3 -0.0626 0.87864-19.128 0.87864-19.128v-0.0389c0-0.66175 0.54219-1.2039 1.2012-1.2039h14.55c0.66314 0 1.1998 0.54219 1.1998 1.2039v0.018s0.87864 19.087 0.88142 19.149c-3e-3 0.65342-0.54219 1.19-1.2012 1.19m1.8699-20.391 3e-3 0.0334c0-1.5181-1.2359-2.7499-2.7527-2.7499h-6.8552v-2.0631h5.8752c0.49075 0 0.90087 0.36563 0.96065 0.84944 0.0222 0.2127 0.2141 0.36702 0.4268 0.342 0.21132-0.0292 0.36425-0.21827 0.34061-0.43376-0.10291-0.87724-0.84527-1.532-1.7281-1.532h-12.586c-0.8842 0-1.628 0.6548-1.7308 1.532-0.0208 0.21549 0.1279 0.40456 0.342 0.43376 0.21132 0.025 0.40456-0.1293 0.42819-0.342 0.0598-0.48381 0.46851-0.84944 0.96066-0.84944h5.9377v2.0631h-6.922c-1.5168 0-2.7513 1.2318-2.7513 2.7499v-0.0334l-0.87863 19.169v0.0195c0 1.5195 1.2359 2.7555 2.7527 2.7555h2.3717v1.1219c-0.19046 0.19602-1.4055 1.4389-1.4055 1.4389-0.0751 0.0722-0.11122 0.17517-0.11122 0.26692 0 0.10566 0.0389 0.20854 0.11539 0.27804 0.15293 0.15015 0.399 0.15015 0.54776-3e-3l1.5181-1.5529c0.0723-0.0709 0.11261-0.16821 0.11261-0.2711v-1.279h10.01v1.279c0 0.10292 0.0404 0.2002 0.10843 0.2711l1.5209 1.5529c0.15015 0.15293 0.39483 0.15293 0.54637 3e-3 0.0792-0.0695 0.11817-0.17238 0.11817-0.27804 0-0.0917-0.0362-0.19463-0.11122-0.26692 0 0-1.2151-1.2429-1.4083-1.4389v-1.1219h2.3745c1.5181 0 2.7513-1.2359 2.7513-2.7555v-0.0195zm-3.0139 17.283c0.42681 0 0.77298 0.35034 0.77298 0.78132 0 0.42124-0.34617 0.77019-0.77298 0.77019h-3.2003c-0.4268 0-0.77437-0.34895-0.77437-0.77019 0-0.43098 0.34757-0.78132 0.77437-0.78132zm-10.823 0c0.42958 0 0.77436 0.35034 0.77436 0.78132 0 0.42124-0.34478 0.77019-0.77436 0.77019h-3.1976c-0.42403 0-0.77575-0.34895-0.77575-0.77019 0-0.43098 0.35172-0.78132 0.77575-0.78132zm-14.634-7.0638c0-10.184 8.2775-18.455 18.45-18.455 10.174 0 18.453 8.2719 18.453 18.455 0 10.167-8.2789 18.443-18.453 18.443-10.172 0-18.45-8.2761-18.45-18.443m-1.5473 0c0 11.02 8.9712 19.996 19.997 19.996 11.03 0 20.003-8.9754 20.003-19.996 0-11.033-8.9726-20.008-20.003-20.008-11.026 0-19.997 8.9754-19.997 20.008" fill="#0c0c0c"/></g><g fill="#fff" aria-label="Touch here"><path d="m231.17 438.29h-5.5824v26.351q0 1.3493-0.10583 1.9578-0.0794 0.6085-0.39685 1.2699-0.4233 0.7937-1.2964 1.2699-0.84661 0.47622-1.9049 0.47622t-1.9313-0.47622q-0.84661-0.47622-1.2699-1.2699-0.31748-0.66142-0.42331-1.2699-0.0794-0.60851-0.0794-1.9578v-26.351h-5.5824q-2.0636 0-2.8838-0.42331-0.71433-0.37039-1.1376-1.1376-0.42331-0.76724-0.42331-1.7197t0.42331-1.7197q0.42331-0.76724 1.1376-1.1376 0.82016-0.4233 2.8838-0.4233h18.573q2.0636 0 2.8838 0.4233 0.71433 0.3704 1.1376 1.1376 0.42331 0.76725 0.42331 1.7197t-0.42331 1.7197q-0.42331 0.76725-1.1376 1.1376-0.82015 0.42331-2.8838 0.42331z"/><path d="m240.77 451.52q-0.31748 1.5874-0.31748 4.1008 0 2.5134 0.31748 4.1272 0.31748 1.5874 1.2964 2.5398 1.1906 1.1906 3.2013 1.1906t3.2013-1.1906q0.9789-0.95244 1.2964-2.5398 0.31748-1.6139 0.31748-4.1272 0-2.5134-0.31748-4.1008-0.31748-1.6139-1.2964-2.5663-1.1906-1.1906-3.2013-1.1906t-3.2013 1.1906q-0.9789 0.95244-1.2964 2.5663zm15.504-2.2753q0.68787 2.434 0.68787 6.3761 0 3.942-0.68787 6.3761-0.66142 2.434-2.4605 4.3389-3.2277 3.3865-8.5455 3.3865t-8.5455-3.3865q-1.799-1.9049-2.4869-4.3389-0.66141-2.434-0.66141-6.3761 0-3.942 0.66141-6.3761 0.68788-2.434 2.4869-4.3389 3.2277-3.3865 8.5455-3.3865t8.5455 3.3865q1.7991 1.9049 2.4605 4.3389z"/><path d="m277.5 466.81q-1.2699 1.4022-3.1219 2.1694-1.8255 0.74079-3.7833 0.74079-4.0743 0-6.5084-2.434-1.561-1.561-2.1959-3.4658-0.6085-1.9049-0.6085-4.3654v-13.123q0-2.1694 0.44976-3.069 0.82016-1.6403 2.9896-1.6403t2.9896 1.6403q0.44976 0.89952 0.44976 3.069v12.17q0 2.5663 1.3228 3.7833 1.3493 1.1906 3.2277 1.1906 1.8784 0 3.2277-1.1906 1.3758-1.217 1.3758-3.7833v-12.17q0-2.1694 0.44976-3.069 0.82016-1.6403 2.9896-1.6403t2.9896 1.6403q0.44976 0.89952 0.44976 3.069v18.599q0 1.3493-0.10583 1.9313-0.0794 0.58205-0.39685 1.1641-0.37039 0.71433-1.1906 1.1641-0.7937 0.42331-1.7726 0.42331-1.3493 0-2.1959-0.7937-0.71433-0.66142-1.0318-2.0107z"/><path d="m300.83 441.51q3.0954 0 5.3972 1.3493 3.3335 1.6932 3.3335 3.8891 0 1.217-0.9789 2.2488-0.84661 0.89953-2.1165 0.89953-1.0847 0-2.3811-0.95244-1.6668-1.1906-3.3071-1.1906-2.434 0.0529-3.8891 1.799-1.5345 1.9049-1.5345 6.0321 0 4.1802 1.5345 6.085 1.4816 1.799 3.8891 1.799 1.7197 0 3.3071-1.1641 1.3493-1.0054 2.3811-1.0054 1.2435 0 2.1165 0.92598 0.9789 0.9789 0.9789 2.2488 0 2.0901-3.3335 3.9156-2.434 1.3228-5.4501 1.3228-1.7726 0-3.4129-0.3704-1.6139-0.39685-3.2806-1.4022-1.6668-1.0054-2.8838-2.5398-1.1906-1.5609-1.9578-4.0743-0.76725-2.5134-0.76725-5.7411t0.76725-5.7411q0.76724-2.5134 1.9842-4.0479t2.8838-2.5134q1.6668-1.0054 3.3071-1.3758 1.6403-0.39685 3.4129-0.39685z"/><path d="m336.16 464.9q0 2.1694-0.44977 3.069-0.82015 1.6403-2.9896 1.6403t-2.9896-1.6403q-0.44976-0.89952-0.44976-3.069v-12.17q0-2.5663-1.3493-3.7568-1.3228-1.217-3.2013-1.217-1.8784 0-3.2542 1.217-1.3493 1.1906-1.3493 3.7568v12.17q0 2.1694-0.44977 3.069-0.82015 1.6403-2.9896 1.6403t-2.9896-1.6403q-0.44976-0.89952-0.44976-3.069v-28.679q0-2.1694 0.44976-3.069 0.82016-1.6403 2.9896-1.6403t2.9896 1.6403q0.44977 0.89953 0.44977 3.069v8.1487q2.778-2.8573 6.72-2.8573 4.0743 0 6.5084 2.434 1.5609 1.561 2.1694 3.4658 0.63496 1.9049 0.63496 4.3654z"/><path d="m374.74 464.9q0 2.1694-0.44977 3.069-0.82015 1.6403-2.9896 1.6403t-2.9896-1.6403q-0.44976-0.89952-0.44976-3.069v-12.17q0-2.5663-1.3493-3.7568-1.3228-1.217-3.2013-1.217-1.8784 0-3.2542 1.217-1.3493 1.1906-1.3493 3.7568v12.17q0 2.1694-0.44977 3.069-0.82015 1.6403-2.9896 1.6403t-2.9896-1.6403q-0.44976-0.89952-0.44976-3.069v-28.679q0-2.1694 0.44976-3.069 0.82016-1.6403 2.9896-1.6403t2.9896 1.6403q0.44977 0.89953 0.44977 3.069v8.1487q2.778-2.8573 6.72-2.8573 4.0743 0 6.5084 2.434 1.5609 1.561 2.1694 3.4658 0.63496 1.9049 0.63496 4.3654z"/><path d="m395.98 453.05q-0.0794-1.7991-0.6085-2.9896-0.58205-1.2964-1.7726-2.0636-1.1906-0.76725-2.8573-0.76725-1.6668 0-2.8573 0.76725-1.1906 0.76724-1.7461 2.0636-0.58205 1.2699-0.6085 2.9896zm2.8044 4.7093h-13.255q0 2.7515 1.5874 4.4447t4.4976 1.6932q2.778 0 4.7622-1.4816 1.4551-1.0318 2.5663-1.0318 1.0318 0 1.9049 0.87307 0.87307 0.84661 0.87307 2.0107 0 1.7461-2.6986 3.5452-2.8309 1.9049-7.5137 1.9049-2.0636 0-3.8362-0.3704-1.7726-0.39685-3.4658-1.3758-1.6932-1.0054-2.8573-2.5663-1.1641-1.5609-1.8784-4.0479-0.71433-2.5134-0.71433-5.7411 0-6.6406 3.2542-10.371 3.2806-3.7304 8.7307-3.7304 5.4236 0 8.5984 3.4658 3.2013 3.4394 3.3865 8.8365 0.0529 2.0901-0.92598 3.069-0.39685 0.39685-0.9789 0.6085-0.55559 0.21165-0.95244 0.23811-0.39685 0.0265-1.0847 0.0265z"/><path d="m413.63 444.5q1.0583-1.2699 2.8309-2.1165 1.7726-0.87308 3.7304-0.87308 2.8309 0 4.7622 1.2699 1.7461 1.1641 1.7461 2.8838 0 1.4816-1.0318 2.5134-0.95244 0.95244-2.3017 0.95244-0.95244 0-2.3546-0.71433-1.3758-0.71433-2.6192-0.71433-1.8784 0-3.2277 1.3228-1.3493 1.2964-1.3493 3.7568v12.117q0 2.1694-0.44976 3.069-0.82016 1.6403-2.9896 1.6403t-2.9896-1.6403q-0.44977-0.89952-0.44977-3.069v-18.599q0-1.3493 0.0794-1.9313 0.10583-0.58205 0.42331-1.1641 0.37039-0.71433 1.1641-1.1376 0.82015-0.44976 1.799-0.44976 1.3493 0 2.1959 0.7937 0.82015 0.74079 1.0318 2.0901z"/><path d="m443.76 453.05q-0.0794-1.7991-0.6085-2.9896-0.58205-1.2964-1.7726-2.0636-1.1906-0.76725-2.8573-0.76725-1.6668 0-2.8573 0.76725-1.1906 0.76724-1.7461 2.0636-0.58205 1.2699-0.60851 2.9896zm2.8044 4.7093h-13.255q0 2.7515 1.5874 4.4447 1.5874 1.6932 4.4976 1.6932 2.778 0 4.7622-1.4816 1.4551-1.0318 2.5663-1.0318 1.0318 0 1.9049 0.87307 0.87307 0.84661 0.87307 2.0107 0 1.7461-2.6986 3.5452-2.8309 1.9049-7.5137 1.9049-2.0636 0-3.8362-0.3704-1.7726-0.39685-3.4658-1.3758-1.6932-1.0054-2.8573-2.5663-1.1641-1.5609-1.8784-4.0479-0.71433-2.5134-0.71433-5.7411 0-6.6406 3.2542-10.371 3.2806-3.7304 8.7307-3.7304 5.4236 0 8.5984 3.4658 3.2013 3.4394 3.3865 8.8365 0.0529 2.0901-0.92599 3.069-0.39685 0.39685-0.97889 0.6085-0.5556 0.21165-0.95245 0.23811-0.39685 0.0265-1.0847 0.0265z"/></g></g></g></svg>
