<?xml version="1.0" encoding="UTF-8" standalone="no"?>
<svg
   xmlns:dc="http://purl.org/dc/elements/1.1/"
   xmlns:cc="http://creativecommons.org/ns#"
   xmlns:rdf="http://www.w3.org/1999/02/22-rdf-syntax-ns#"
   xmlns:svg="http://www.w3.org/2000/svg"
   xmlns="http://www.w3.org/2000/svg"
   xmlns:sodipodi="http://sodipodi.sourceforge.net/DTD/sodipodi-0.dtd"
   xmlns:inkscape="http://www.inkscape.org/namespaces/inkscape"
   inkscape:version="1.1-dev (ddb55ca, 2020-02-02)"
   sodipodi:docname="vivi logo.svg"
   viewBox="0 0 2518.0264 1017.3379"
   height="1017.3379"
   width="2518.0264"
   id="svg919"
   version="1.1">
  <metadata
     id="metadata925">
    <rdf:RDF>
      <cc:Work
         rdf:about="">
        <dc:format>image/svg+xml</dc:format>
        <dc:type
           rdf:resource="http://purl.org/dc/dcmitype/StillImage" />
        <dc:title></dc:title>
      </cc:Work>
    </rdf:RDF>
  </metadata>
  <defs
     id="defs923" />
  <sodipodi:namedview
     inkscape:current-layer="g927"
     inkscape:window-maximized="0"
     inkscape:window-y="25"
     inkscape:window-x="0"
     inkscape:cy="588.62369"
     inkscape:cx="496.37662"
     inkscape:zoom="0.20123305"
     showgrid="false"
     id="namedview921"
     inkscape:window-height="697"
     inkscape:window-width="1172"
     inkscape:pageshadow="2"
     inkscape:pageopacity="0"
     guidetolerance="10"
     gridtolerance="10"
     objecttolerance="10"
     borderopacity="1"
     bordercolor="#666666"
     pagecolor="#ffffff" />
  <g
     transform="translate(-0.55962885,80.357031)"
     id="g927"
     inkscape:label="Image"
     inkscape:groupmode="layer">
    <path
       inkscape:connector-curvature="0"
       id="path1494"
       d="m 397.86669,-79.54733 c -65.40374,8.58769 -127.44748,17.98221 -186.66668,50.00994 -8.55573,4.62699 -18.5248,8.56384 -24.2976,16.75296 -11.8656,16.83168 -7.03253,46.22976 14.6976,52.47616 12.84267,3.69067 24.4736,-4.7648 35.2,-10.56213 14.48214,-7.82795 30.36374,-14.33558 45.86667,-19.85803 51.584,-18.37589 108.48747,-28.16416 163.20001,-22.95723 41.42187,3.94219 81.94134,12.75424 120.53334,28.63051 16.92907,6.96437 42.1632,27.00608 60.8,22.72875 22.42027,-5.14454 28.5664,-35.37611 16.22507,-52.60608 -7.5264,-10.50635 -22.01493,-15.60181 -33.29173,-21.05845 -52.57814,-25.44054 -111.32054,-40.43244 -169.60001,-42.9844 -14.0448,-0.61497 -28.60694,-2.41802 -42.66667,-0.572 m 686.93341,13.88226 c -63.792,9.96352 -70.7019,101.71413 -8.5334,120.36267 9.6107,2.88106 18.9654,3.0528 28.8,1.52 8.2134,-1.28214 16.6294,-4.8128 23.4667,-9.52 52.352,-36.0544 19.9147,-122.30431 -43.7333,-112.36267 m 1363.2,0 c -63.04,9.92214 -70.112,101.83787 -8.5333,120.30933 9.5467,2.86294 19.0507,3.104 28.8,1.59574 8.288,-1.2832 16.4907,-4.3488 23.4667,-9.03894 53.664,-36.06826 20.5973,-122.99279 -43.7334,-112.86613 m -2049.06675,166.384 c -35.23413,4.6272 -77.952,7.49333 -108.79573,27.42293 -17.26187,11.15307 -16.82881,40.74987 1.0784,51.0944 10.39146,6.00213 19.78773,1.28853 29.85066,-2.50667 13.21814,-4.98453 26.67521,-9.58933 40.53334,-12.45973 40.6272,-8.41493 81.34187,-7.6672 121.60001,2.52907 13.10613,3.31946 26.01813,7.88906 38.4,13.31946 8.04053,3.5264 16.46933,8.85333 25.6,7.264 27.38453,-4.76587 26.73707,-44.31573 5.33333,-55.8368 -43.21387,-23.2608 -104.58027,-37.26293 -153.60001,-30.82666 m 17.06667,652.34771 h -2.13333 c -5.1456,-16.25493 -17.73227,-32.13227 -26.2176,-46.93333 C 369.06455,673.71624 350.17602,641.47304 331.57335,609.06664 272.31681,505.83358 212.89601,402.68158 153.14774,299.73332 129.52747,259.03572 104.50059,189.47519 44.800002,206.32319 c -7.639467,2.15573 -15.151147,5.6928 -21.333334,10.70933 -5.36,4.3488 -10.346134,9.58827 -13.9448542,15.5008 -26.0902418,42.86507 11.0452272,85.21067 31.7785622,121.6 l 21.472427,37.33333 C 143.15947,532.29865 225.57975,671.97118 305.97335,812.8 c 13.22667,23.1712 26.448,46.3808 40.05013,69.3333 17.67467,29.8272 36.13867,56.7723 75.30988,51.9616 37.72586,-4.6336 51.54453,-32.6763 68.71573,-62.6283 15.7216,-27.4218 31.7216,-54.6826 47.39094,-82.1333 67.7472,-118.69012 135.76107,-237.35785 204.97174,-355.19998 20.992,-35.74187 41.63414,-71.7184 62.15467,-107.73333 9.46134,-16.60587 23.1584,-33.74187 25.11787,-53.33333 5.2192,-52.1632 -52.48854,-89.62774 -96.88427,-58.90774 -17.00054,11.7632 -25.57227,33.00587 -35.65227,50.3744 -21.02507,36.22613 -41.55094,72.76693 -62.90454,108.8 -30.12373,50.8352 -58.90133,102.4928 -88.56213,153.59999 -29.26401,50.4224 -58.46827,100.8896 -87.46348,151.46667 -13.408,23.38666 -34.096,49.01013 -42.2176,74.66666 m 1362.13338,0 c -10.5173,-24.4064 -27.072,-47.29707 -40.2346,-70.4 -30.08,-52.79146 -60.8747,-105.17226 -91.1254,-157.86666 -29.2053,-50.8864 -58.0373,-102.05653 -87.9467,-152.53333 -20.5013,-34.5952 -40.384,-69.60853 -60.32,-104.53333 -9.9733,-17.4688 -19.136,-40.16106 -36.1066,-51.89546 -44.512,-30.784 -103.7227,4.34666 -97.952,58.29546 2.0053,18.68267 15.0186,35.33653 24.0533,51.2 19.5093,34.2464 39.4987,68.2176 59.1253,102.4 69.2694,120.68053 139.7974,240.65386 208.6081,361.59998 18.0693,31.7664 36.7466,63.1925 54.8586,94.9333 13.44,23.552 27.6374,46.9696 57.44,49.951 47.9574,4.7989 67.136,-30.8064 87.7654,-67.0176 13.216,-23.1915 26.8373,-46.1526 40.0746,-69.33336 68.9814,-120.8384 138.7734,-241.25866 208.608,-361.59999 20,-34.44267 39.744,-69.024 59.7334,-103.46666 10.9973,-18.94294 26.2186,-38.576 29.1093,-60.8 6.7307,-51.7728 -53.0133,-86.37867 -95.6907,-58.8096 -17.5893,11.3632 -26.5386,32.63147 -36.5653,50.27627 -18.0693,31.77279 -36.7787,63.17759 -54.8693,94.93333 -27.6374,48.50026 -55.9894,96.58879 -83.6587,145.06666 -32.5653,57.05173 -65.6107,113.84959 -98.592,170.66666 -14.816,25.5424 -27.5733,56.13653 -46.3147,78.93333 M 1085.8667,204.20159 c -23.441,3.6608 -43.8666,19.9744 -50.4042,43.26507 -4.0566,14.45226 -2.9291,29.96159 -2.9291,44.79999 v 69.33334 450.13331 c 0,43.7952 -10.0427,112.4021 48,123.9381 7.296,1.4507 16.0853,1.5958 23.4667,0.5419 67.3173,-9.6181 52.2666,-93.2544 52.2666,-141.54666 V 341.33332 c 0,-46.87893 13.8667,-120.73066 -46.9333,-135.57546 -7.5733,-1.84854 -15.7227,-2.76587 -23.4667,-1.55627 m 1362.1334,-0.0117 c -25.2906,3.6224 -46.2293,21.43253 -52.5333,46.4768 -3.2853,13.03146 -1.8667,27.20319 -1.8667,40.53333 v 70.4 450.13328 c 0,45.5765 -10.208,109.9115 48,123.8411 7.4347,1.7792 16.9707,1.728 24.5334,0.6389 22.656,-3.2651 42.848,-21.4379 48.896,-43.4133 3.776,-13.7238 2.304,-28.5654 2.304,-42.6667 V 778.66664 328.53332 c 0,-43.9392 10.4853,-110.09066 -46.9334,-123.024 -7.3173,-1.64693 -14.944,-2.3872 -22.4,-1.31946 M 401.06669,263.91892 c -14.26027,1.8784 -35.18934,2.37227 -46.91734,11.70134 -13.4144,10.67199 -13.33653,36.43519 3.18507,44.32639 8.64747,4.13014 17.0048,0.46827 25.59893,-1.68 10.69654,-2.67413 22.04054,-4.39893 33.06667,-4.65066 11.6512,-0.26667 23.89334,1.82506 35.2,4.50133 6.5856,1.5584 13.3728,4.84267 20.26667,3.66507 20.0032,-3.4176 24.59734,-34.02134 9.5008,-45.7408 -6.7392,-5.23093 -16.272,-6.86187 -24.43413,-8.52053 -17.89654,-3.63627 -37.22027,-6.00427 -55.46667,-3.60214 z"
       style="fill:#ffffff;fill-opacity:1;stroke:none;stroke-width:1.06667" />
    <path
       inkscape:connector-curvature="0"
       d=""
       id="path1492"
       style="fill:#000000;stroke-width:1.06667" />
  </g>
</svg>
